<?xml version="1.0" encoding="UTF-8" standalone="no"?>
<svg
   xmlns:dc="http://purl.org/dc/elements/1.1/"
   xmlns:cc="http://creativecommons.org/ns#"
   xmlns:rdf="http://www.w3.org/1999/02/22-rdf-syntax-ns#"
   xmlns:svg="http://www.w3.org/2000/svg"
   xmlns="http://www.w3.org/2000/svg"
   xmlns:sodipodi="http://sodipodi.sourceforge.net/DTD/sodipodi-0.dtd"
   xmlns:inkscape="http://www.inkscape.org/namespaces/inkscape"
   width="642.81763"
   height="838.87549"
   viewBox="0 0 514.25411 671.10038"
   xml:space="preserve"
   id="svg3057"
   version="1.1"
   inkscape:version="0.48.5 r10040"
   sodipodi:docname="pgadmin3.svg"
   inkscape:export-filename="/Users/devon/devokun_github/chocolatey-templates/pgadmin3/pgadmin3_logo.png"
   inkscape:export-xdpi="72"
   inkscape:export-ydpi="72"><metadata
     id="metadata3089"><rdf:RDF><cc:Work
         rdf:about=""><dc:format>image/svg+xml</dc:format><dc:type
           rdf:resource="http://purl.org/dc/dcmitype/StillImage" /><dc:title /></cc:Work></rdf:RDF></metadata><defs
     id="defs3087" /><sodipodi:namedview
     pagecolor="#ffffff"
     bordercolor="#666666"
     borderopacity="1"
     objecttolerance="10"
     gridtolerance="10"
     guidetolerance="10"
     inkscape:pageopacity="0"
     inkscape:pageshadow="2"
     inkscape:window-width="1440"
     inkscape:window-height="852"
     id="namedview3085"
     showgrid="false"
     inkscape:zoom="0.86217927"
     inkscape:cx="448.83944"
     inkscape:cy="397.20043"
     inkscape:window-x="0"
     inkscape:window-y="0"
     inkscape:window-maximized="1"
     inkscape:current-layer="svg3057"
     fit-margin-top="0"
     fit-margin-left="0"
     fit-margin-right="0"
     fit-margin-bottom="0" /><g
     id="orginal"
     style="fill-rule:nonzero;stroke:#000000;stroke-miterlimit:4"
     transform="translate(0,0.01245517)" /><g
     id="Layer_x0020_3"
     style="fill:none;stroke:#ffffff;stroke-width:12.46510029;stroke-linecap:round;stroke-linejoin:round;stroke-miterlimit:4"
     inkscape:export-filename="/home/devon/incoming/winsrc/chocolatey/chocolatey-templates/postgresql/postgresql_server.png"
     inkscape:export-xdpi="72"
     inkscape:export-ydpi="72"
     transform="translate(0,0.01245517)"><path
       style="fill:#000000;stroke:#000000;stroke-width:37.39530182;stroke-linecap:butt;stroke-linejoin:miter"
       d="m 323.205,324.227 c 2.833,-23.601 1.984,-27.062 19.563,-23.239 l 4.463,0.392 c 13.517,0.615 31.199,-2.174 41.587,-7 22.362,-10.376 35.622,-27.7 13.572,-23.148 -50.297,10.376 -53.755,-6.655 -53.755,-6.655 C 401.746,185.774 423.948,85.741 404.784,61.255 352.514,-5.534 262.036,26.049 260.522,26.869 l -0.482,0.089 c -9.938,-2.062 -21.06,-3.294 -33.554,-3.496 -22.761,-0.374 -40.032,5.967 -53.133,15.904 0,0 -161.408,-66.498 -153.899,83.628 1.597,31.936 45.777,241.655 98.47,178.31 19.259,-23.163 37.871,-42.748 37.871,-42.748 9.242,6.14 20.307,9.272 31.912,8.147 l 0.897,-0.765 c -0.281,2.876 -0.157,5.689 0.359,9.019 -13.572,15.167 -9.584,17.83 -36.723,23.416 -27.457,5.659 -11.326,15.734 -0.797,18.367 12.768,3.193 42.305,7.716 62.268,-20.224 l -0.795,3.188 c 5.325,4.26 4.965,30.619 5.72,49.452 0.756,18.834 2.017,36.409 5.856,46.771 3.839,10.36 8.369,37.05 44.036,29.406 29.809,-6.388 52.6,-15.582 54.677,-101.107"
       id="path3061"
       inkscape:connector-curvature="0" /><path
       style="fill:#336791;stroke:none"
       d="m 402.395,271.23 c -50.302,10.376 -53.76,-6.655 -53.76,-6.655 53.111,-78.808 75.313,-178.843 56.153,-203.326 -52.27,-66.785 -142.752,-35.2 -144.262,-34.38 l -0.486,0.087 c -9.938,-2.063 -21.06,-3.292 -33.56,-3.496 -22.761,-0.373 -40.026,5.967 -53.127,15.902 0,0 -161.411,-66.495 -153.904,83.63 1.597,31.938 45.776,241.657 98.471,178.312 19.26,-23.163 37.869,-42.748 37.869,-42.748 9.243,6.14 20.308,9.272 31.908,8.147 l 0.901,-0.765 c -0.28,2.876 -0.152,5.689 0.361,9.019 -13.575,15.167 -9.586,17.83 -36.723,23.416 -27.459,5.659 -11.328,15.734 -0.796,18.367 12.768,3.193 42.307,7.716 62.266,-20.224 l -0.796,3.188 c 5.319,4.26 9.054,27.711 8.428,48.969 -0.626,21.259 -1.044,35.854 3.147,47.254 4.191,11.4 8.368,37.05 44.042,29.406 29.809,-6.388 45.256,-22.942 47.405,-50.555 1.525,-19.631 4.976,-16.729 5.194,-34.28 l 2.768,-8.309 c 3.192,-26.611 0.507,-35.196 18.872,-31.203 l 4.463,0.392 c 13.517,0.615 31.208,-2.174 41.591,-7 22.358,-10.376 35.618,-27.7 13.573,-23.148 z"
       id="path3063"
       inkscape:connector-curvature="0" /><path
       d="m 215.866,286.484 c -1.385,49.516 0.348,99.377 5.193,111.495 4.848,12.118 15.223,35.688 50.9,28.045 29.806,-6.39 40.651,-18.756 45.357,-46.051 3.466,-20.082 10.148,-75.854 11.005,-87.281"
       id="path3065"
       inkscape:connector-curvature="0" /><path
       d="m 173.104,38.256 c 0,0 -161.521,-66.016 -154.012,84.109 1.597,31.938 45.779,241.664 98.473,178.316 19.256,-23.166 36.671,-41.335 36.671,-41.335"
       id="path3067"
       inkscape:connector-curvature="0" /><path
       d="m 260.349,26.207 c -5.591,1.753 89.848,-34.889 144.087,34.417 19.159,24.484 -3.043,124.519 -56.153,203.329"
       id="path3069"
       inkscape:connector-curvature="0" /><path
       style="stroke-linejoin:bevel"
       d="m 348.282,263.953 c 0,0 3.461,17.036 53.764,6.653 22.04,-4.552 8.776,12.774 -13.577,23.155 -18.345,8.514 -59.474,10.696 -60.146,-1.069 -1.729,-30.355 21.647,-21.133 19.96,-28.739 -1.525,-6.85 -11.979,-13.573 -18.894,-30.338 -6.037,-14.633 -82.796,-126.849 21.287,-110.183 3.813,-0.789 -27.146,-99.002 -124.553,-100.599 -97.385,-1.597 -94.19,119.762 -94.19,119.762"
       id="path3071"
       inkscape:connector-curvature="0" /><path
       d="m 188.604,274.334 c -13.577,15.166 -9.584,17.829 -36.723,23.417 -27.459,5.66 -11.326,15.733 -0.797,18.365 12.768,3.195 42.307,7.718 62.266,-20.229 6.078,-8.509 -0.036,-22.086 -8.385,-25.547 -4.034,-1.671 -9.428,-3.765 -16.361,3.994 z"
       id="path3073"
       inkscape:connector-curvature="0" /><path
       d="m 187.715,274.069 c -1.368,-8.917 2.93,-19.528 7.536,-31.942 6.922,-18.626 22.893,-37.255 10.117,-96.339 -9.523,-44.029 -73.396,-9.163 -73.436,-3.193 -0.039,5.968 2.889,30.26 -1.067,58.548 -5.162,36.913 23.488,68.132 56.479,64.938"
       id="path3075"
       inkscape:connector-curvature="0" /><path
       style="fill:#ffffff;stroke-width:4.15500021;stroke-linecap:butt;stroke-linejoin:miter"
       d="m 172.517,141.7 c -0.288,2.039 3.733,7.48 8.976,8.207 5.234,0.73 9.714,-3.522 9.998,-5.559 0.284,-2.039 -3.732,-4.285 -8.977,-5.015 -5.237,-0.731 -9.719,0.333 -9.996,2.367 z"
       id="path3077"
       inkscape:connector-curvature="0" /><path
       style="fill:#ffffff;stroke-width:2.0775001;stroke-linecap:butt;stroke-linejoin:miter"
       d="m 331.941,137.543 c 0.284,2.039 -3.732,7.48 -8.976,8.207 -5.238,0.73 -9.718,-3.522 -10.005,-5.559 -0.277,-2.039 3.74,-4.285 8.979,-5.015 5.239,-0.73 9.718,0.333 10.002,2.368 z"
       id="path3079"
       inkscape:connector-curvature="0" /><path
       d="m 350.676,123.432 c 0.863,15.994 -3.445,26.888 -3.988,43.914 -0.804,24.748 11.799,53.074 -7.191,81.435"
       id="path3081"
       inkscape:connector-curvature="0" /><path
       style="stroke-width:3"
       d="M 0,60.232"
       id="path3083"
       inkscape:connector-curvature="0" /></g><g
     id="g8170"
     transform="matrix(1.367699,0,0,1.367699,-80.293574,27.40934)"
     inkscape:export-filename="/home/devon/incoming/winsrc/chocolatey/chocolatey-templates/postgresql/postgresql_server.png"
     inkscape:export-xdpi="72"
     inkscape:export-ydpi="72"><path
       d="m 95.210173,332.9617 c -6.2e-5,3.52379 -1.045453,6.28409 -3.136234,8.2809 -2.090905,1.99682 -4.956982,2.99523 -8.598292,2.99523 l -14.51832,0 0.0371,16.66813 -3.946767,0.0618 0,-39.18577 19.522285,-0.068 c 3.359407,0 5.967073,0.99841 7.822997,2.99523 1.879353,1.99681 2.819031,4.75773 2.819093,8.28152 m -3.982005,0.14219 c 0,-5.49711 -2.631158,-8.24629 -7.893473,-8.24629 l -14.377368,-0.0618 0,16.31577 13.637372,0 c 5.755646,0 8.633469,-2.67808 8.633469,-8.03424"
       style="font-size:40px;font-style:normal;font-variant:normal;font-weight:normal;font-stretch:normal;line-height:125%;letter-spacing:0px;word-spacing:0px;fill:#1a1a1a;fill-opacity:1;stroke:none;font-family:Strait;-inkscape-font-specification:Strait"
       id="path5731"
       inkscape:connector-curvature="0" /><path
       d="m 123.78575,348.07875 c -6e-5,4.18156 -1.09244,7.44756 -3.27719,9.79676 -2.44328,2.63109 -6.00237,3.94664 -10.67732,3.94664 -2.2318,0 -4.18169,-0.30292 -5.84968,-0.91619 -1.64443,-0.63428 -3.08925,-1.62094 -4.334319,-2.95998 -2.255286,-2.51363 -3.382961,-5.80312 -3.382961,-9.86723 0,-4.0876 1.092436,-7.32948 3.277248,-9.72565 2.419672,-2.67808 5.849612,-4.01712 10.289712,-4.01712 4.69844,0 8.24579,1.3038 10.64209,3.9114 2.20824,2.3492 3.31236,5.62632 3.31242,9.83137 m -3.41814,0 c -6e-5,-7.30599 -3.51216,-10.95898 -10.53637,-10.95898 -3.17154,0 -5.66174,0.97491 -7.47062,2.92474 -0.86926,0.93968 -1.53878,2.09079 -2.00862,3.45332 -0.446348,1.33904 -0.66952,2.86601 -0.66952,4.58092 0,3.35935 0.8692,6.03743 2.60766,8.03486 1.7619,1.97332 4.2756,2.95998 7.5411,2.95998 3.61782,0 6.30771,-1.0219 8.06966,-3.06569 0.84571,-0.91619 1.46825,-2.03267 1.86761,-3.34822 0.39936,-1.31555 0.59904,-2.84253 0.59904,-4.58093"
       style="font-size:40px;font-style:normal;font-variant:normal;font-weight:normal;font-stretch:normal;line-height:125%;letter-spacing:0px;word-spacing:0px;fill:#1a1a1a;fill-opacity:1;stroke:none;font-family:Strait;-inkscape-font-specification:Strait"
       id="path5733"
       inkscape:connector-curvature="0" /><path
       d="m 151.35377,353.82253 c -6e-5,5.2863 -3.95851,7.92914 -11.87547,7.92914 -2.41974,0 -4.46359,-0.18546 -6.13152,-0.56256 -1.6445,-0.37712 -2.98354,-0.98667 -4.01724,-1.83238 -0.79873,-0.63428 -1.43301,-1.46824 -1.90285,-2.50189 -0.46984,-1.05713 -0.7753,-2.36156 -0.91625,-3.91202 l 3.66487,-0.0618 c 0,2.06791 0.64603,3.59489 1.93808,4.58154 1.38608,1.1746 3.84105,1.7619 7.36491,1.7619 5.54421,0 8.31632,-1.65618 8.31632,-4.96916 0,-1.92634 -0.92793,-3.25363 -2.78385,-3.98188 -0.37587,-0.16692 -2.61942,-0.53784 -6.73056,-1.12762 -4.08772,-0.61202 -6.63666,-1.1511 -7.64681,-1.62093 -2.18481,-1.03365 -3.27718,-2.90126 -3.27718,-5.60284 0,-2.63108 0.97491,-4.59266 2.9248,-5.88472 0.96317,-0.53784 2.16126,-0.95142 3.59433,-1.23332 1.4565,-0.30293 3.13623,-0.45748 5.03914,-0.45748 7.61157,0 11.41732,2.85427 11.41732,8.5628 l -3.48861,0 c 0,-4.01712 -2.67814,-6.02568 -8.03442,-6.02568 -2.72513,0 -4.75724,0.4142 -6.09628,1.23333 -1.33911,0.79873 -2.00863,2.0438 -2.00863,3.73522 0,1.57396 0.90444,2.70157 2.71339,3.38284 1.05713,0.3771 3.48861,0.79873 7.29442,1.26856 3.40639,0.37711 5.74384,0.89269 7.01246,1.55047 2.41973,1.12761 3.62957,3.0422 3.62963,5.74378"
       style="font-size:40px;font-style:normal;font-variant:normal;font-weight:normal;font-stretch:normal;line-height:125%;letter-spacing:0px;word-spacing:0px;fill:#1a1a1a;fill-opacity:1;stroke:none;font-family:Strait;-inkscape-font-specification:Strait"
       id="path5735"
       inkscape:connector-curvature="0" /><path
       d="m 167.33744,361.01167 c -0.56381,0.11747 -1.06895,0.19784 -1.5153,0.24729 -0.42285,0.0618 -0.72825,0.068 -0.91619,0.068 -2.39624,0 -4.12295,-0.4142 -5.18009,-1.23333 -1.0572,-0.8457 -1.58576,-2.31395 -1.58576,-4.40473 l 0,-17.79575 -4.36963,0 0,-2.64284 4.33439,0 0.0371,-8.49296 3.34765,0 0,8.5282 5.84969,-0.0618 0,2.67808 -5.84969,-0.0618 0,17.3018 c 0,1.29267 0.28191,2.18536 0.84578,2.67869 0.58729,0.49457 1.62093,0.74 3.10099,0.74 0.21144,0 0.44635,0 0.70476,-0.0618 0.25841,-0.0618 0.64603,-0.12982 1.16292,-0.24728 l 0.0371,2.67808"
       style="font-size:40px;font-style:normal;font-variant:normal;font-weight:normal;font-stretch:normal;line-height:125%;letter-spacing:0px;word-spacing:0px;fill:#1a1a1a;fill-opacity:1;stroke:none;font-family:Strait;-inkscape-font-specification:Strait"
       id="path5737"
       inkscape:connector-curvature="0" /><path
       d="m 194.73662,360.13073 c -5e-5,7.79932 -4.38137,11.69896 -13.14404,11.69896 -4.58105,0 -7.83474,-0.75176 -9.76114,-2.25521 -1.66799,-1.29205 -2.68988,-3.37109 -3.06576,-6.2371 l 3.45338,-0.0618 c 0.39936,2.09078 1.12767,3.54728 2.18481,4.3695 1.40951,1.10412 3.77051,1.65618 7.083,1.65618 3.52385,0 6.0493,-0.79873 7.57634,-2.39618 1.55046,-1.59745 2.32569,-3.86442 2.32569,-6.80091 l -0.0371,-4.58093 c -2.1144,3.31237 -5.69698,4.96855 -10.74787,4.96855 -4.20511,0 -7.45881,-1.15111 -9.76108,-3.45332 -1.0572,-1.12761 -1.86767,-2.49076 -2.43147,-4.08821 -0.54032,-1.62095 -0.81048,-3.46506 -0.81048,-5.53235 0,-4.13458 1.09238,-7.29424 3.27719,-9.47899 2.30227,-2.39617 5.63818,-3.59426 10.00781,-3.59426 2.98347,0 5.41495,0.62253 7.29437,1.86761 0.63428,0.46983 1.69148,1.60919 3.17153,3.41807 l 0.0371,-4.43998 3.34767,0 0,24.91381 m -3.34767,-12.82721 c -6e-5,-3.07744 -0.85752,-5.53235 -2.57242,-7.36472 -1.69148,-1.85586 -4.18169,-2.78379 -7.47063,-2.78379 -3.26549,0 -5.80269,0.91618 -7.61157,2.74855 -1.78544,1.80888 -2.67813,4.32252 -2.67813,7.54091 0,6.93012 3.5121,10.3958 10.53638,10.3958 1.52696,0 2.87781,-0.23492 4.05241,-0.70476 1.17459,-0.46984 2.22005,-1.16285 3.1363,-2.07965 1.7384,-1.80888 2.6076,-4.39299 2.6076,-7.75234"
       style="font-size:40px;font-style:normal;font-variant:normal;font-weight:normal;font-stretch:normal;line-height:125%;letter-spacing:0px;word-spacing:0px;fill:#1a1a1a;fill-opacity:1;stroke:none;font-family:Strait;-inkscape-font-specification:Strait"
       id="path5739"
       inkscape:connector-curvature="0" /><path
       d="m 214.22979,337.85976 c -1.01015,-0.18545 -1.94989,-0.28437 -2.81909,-0.28437 -5.52073,0 -8.28109,3.60601 -8.28109,10.81803 l 0.0371,12.51007 -3.34765,0 -0.0371,-25.61856 3.34766,-0.0618 0,4.61616 0.17619,0 c 0.5638,-1.80887 1.45656,-3.17141 2.67814,-4.08759 1.33904,-0.8927 3.33591,-1.33904 5.99057,-1.33904 0.54031,0 0.98665,0 1.33909,0 0.37588,0 0.68127,0 0.91619,0.0618 l 0,3.38283"
       style="font-size:40px;font-style:normal;font-variant:normal;font-weight:normal;font-stretch:normal;line-height:125%;letter-spacing:0px;word-spacing:0px;fill:#1a1a1a;fill-opacity:1;stroke:none;font-family:Strait;-inkscape-font-specification:Strait"
       id="path5741"
       inkscape:connector-curvature="0" /><path
       d="m 241.81729,348.78351 -23.92708,0 c 0,2.93649 0.81053,5.33267 2.43148,7.18915 1.87941,2.16125 4.56929,3.24189 8.06965,3.24189 4.95692,0 8.05792,-2.22 9.30306,-6.66059 l 3.62956,0 c -0.54031,2.53775 -1.82069,4.67551 -3.84099,6.41392 -1.15117,0.91619 -2.50202,1.62094 -4.05248,2.11427 -1.52704,0.5193 -3.19496,0.77524 -5.00391,0.77524 -4.53406,0 -8.04617,-1.36254 -10.53637,-4.0876 -2.30228,-2.44316 -3.45338,-5.7444 -3.45338,-9.90247 0,-4.13457 1.19809,-7.39995 3.59433,-9.79613 2.39624,-2.41967 5.76739,-3.6295 10.11352,-3.6295 2.32576,0 4.35788,0.34002 6.09628,1.0219 1.73846,0.65777 3.19496,1.67967 4.36962,3.06569 2.13776,2.49015 3.20671,5.90823 3.20671,10.25423 m -3.52385,-2.3257 c 0,-2.46666 -0.95149,-4.6749 -2.85433,-6.62472 -1.87942,-1.94983 -4.3109,-2.92474 -7.29443,-2.92474 -1.52703,0 -2.90131,0.23491 -4.1229,0.70475 -1.22164,0.44511 -2.31401,1.13936 -3.27725,2.07904 -1.47999,1.59745 -2.43147,3.85267 -2.85432,6.76567 l 20.40323,0"
       style="font-size:40px;font-style:normal;font-variant:normal;font-weight:normal;font-stretch:normal;line-height:125%;letter-spacing:0px;word-spacing:0px;fill:#1a1a1a;fill-opacity:1;stroke:none;font-family:Strait;-inkscape-font-specification:Strait"
       id="path5743"
       inkscape:connector-curvature="0" /><path
       d="m 285.64296,350.52747 c 0,9.19957 -6.19408,13.79904 -18.58211,13.79904 -7.42153,0 -12.83958,-1.58014 -16.25407,-4.74042 -2.79368,-2.59648 -4.19053,-6.54683 -4.19053,-11.8523 l 4.99476,0 c 0,8.55044 5.14992,12.82597 15.44984,12.82597 4.93831,0 8.50797,-0.88898 10.70904,-2.66694 1.86241,-1.52389 2.79368,-3.93676 2.79368,-7.23799 0,-3.27342 -1.26986,-5.57316 -3.80952,-6.89983 -1.43919,-0.70537 -4.95247,-1.59436 -10.53978,-2.66633 -7.0265,-1.2698 -11.58381,-2.55382 -13.67205,-3.85206 -3.01939,-1.89048 -4.52912,-5.0792 -4.52912,-9.56616 0,-4.23287 1.28395,-7.36534 3.85187,-9.39677 2.76549,-2.25769 7.50623,-3.38654 14.22232,-3.38654 12.13408,0 18.20112,4.81151 18.20117,14.43393 l -5.03704,0 c -5e-5,-7.19533 -4.50093,-10.79331 -13.50272,-10.79331 -4.51509,0 -7.81663,0.7196 -9.90481,2.15879 -1.97536,1.5517 -2.96302,3.82362 -2.96302,6.81452 0,3.13245 1.26986,5.3475 3.80953,6.64573 1.35449,0.73382 5.33334,1.74954 11.93661,3.04777 6.20812,1.12823 10.39864,2.42647 12.57152,3.8941 2.96296,1.83422 4.44443,4.98028 4.44443,9.4388"
       style="font-size:28px;font-style:normal;font-variant:normal;font-weight:normal;font-stretch:normal;line-height:125%;letter-spacing:0px;word-spacing:0px;fill:#316192;fill-opacity:1;stroke:none;font-family:Strait;-inkscape-font-specification:Strait"
       id="path5724"
       inkscape:connector-curvature="0" /><path
       d="m 335.10633,364.19978 -3.04759,3.30185 -7.36515,-6.13757 c -1.55207,0.98728 -3.44274,1.73531 -5.672,2.24285 -2.22933,0.50694 -4.83958,0.76226 -7.83073,0.76226 -7.64736,0 -13.68615,-2.27192 -18.11653,-6.81514 -4.40215,-4.57103 -6.60322,-10.56765 -6.60322,-17.98924 0,-7.59099 2.18698,-13.61543 6.56093,-18.07457 4.37389,-4.45852 10.39864,-6.68778 18.07413,-6.68778 3.95066,0 7.46388,0.59348 10.53977,1.77797 3.07584,1.1851 5.70019,2.99151 7.87307,5.41798 4.06349,4.40226 6.09524,10.25793 6.09529,17.5664 -5e-5,4.09192 -0.62086,7.70349 -1.86247,10.83596 -1.24167,3.10402 -3.16053,5.74253 -5.75664,7.91554 l 7.11114,5.88349 m -4.27516,-24.63499 c 0,-3.21716 -0.4377,-6.08132 -1.31216,-8.59248 -0.87482,-2.54023 -2.22932,-4.75527 -4.06354,-6.64575 -3.47094,-3.86628 -8.23992,-5.7988 -14.30695,-5.7988 -5.98241,0 -10.79374,1.84783 -14.43394,5.54471 -3.61201,3.69689 -5.41804,8.86079 -5.41804,15.49232 0,6.37744 1.82013,11.48508 5.46039,15.32292 3.66839,3.8094 8.46562,5.71409 14.39159,5.71409 2.9065,0 5.53086,-0.45129 7.87307,-1.35449 2.34214,-0.9032 4.44442,-2.24348 6.3069,-4.02144 3.66845,-3.83723 5.50268,-9.058 5.50268,-15.66108"
       style="font-size:28px;font-style:normal;font-variant:normal;font-weight:normal;font-stretch:normal;line-height:125%;letter-spacing:0px;word-spacing:0px;fill:#316192;fill-opacity:1;stroke:none;font-family:Strait;-inkscape-font-specification:Strait"
       id="path5726"
       inkscape:connector-curvature="0" /><path
       d="m 372.86997,363.09937 -34.07424,0.0618 0,-47.06916 4.69844,-0.0865 0,43.17507 29.41814,0 -0.0433,3.93675"
       style="font-size:28px;font-style:normal;font-variant:normal;font-weight:normal;font-stretch:normal;line-height:125%;letter-spacing:0px;word-spacing:0px;fill:#316192;fill-opacity:1;stroke:none;font-family:Strait;-inkscape-font-specification:Strait"
       id="path5728"
       inkscape:connector-curvature="0" /></g><text
     xml:space="preserve"
     style="font-size:96.23391724px;font-style:normal;font-variant:normal;font-weight:normal;font-stretch:normal;line-height:125%;letter-spacing:0px;word-spacing:0px;fill:#336791;fill-opacity:1;stroke:none;font-family:Wire One;-inkscape-font-specification:Wire One"
     x="13.088384"
     y="561.45599"
     id="text8200-1"
     sodipodi:linespacing="125%"
     transform="scale(0.91642959,1.0911913)"
     inkscape:export-filename="/home/devon/incoming/winsrc/chocolatey/chocolatey-templates/postgresql/postgresql_server.png"
     inkscape:export-xdpi="72"
     inkscape:export-ydpi="72"><tspan
       sodipodi:role="line"
       id="tspan8202-0"
       x="13.088384"
       y="561.45599"
       style="font-style:normal;font-variant:normal;font-weight:bold;font-stretch:normal;fill:#336791;fill-opacity:1;font-family:Apple SD Gothic Neo;-inkscape-font-specification:Apple SD Gothic Neo">pgAdmin3</tspan></text>
</svg>